<?xml version="1.0" encoding="utf-8"?>
<!-- Generator: Adobe Illustrator 25.2.1, SVG Export Plug-In . SVG Version: 6.00 Build 0)  -->
<svg version="1.1" id="Layer_1" xmlns="http://www.w3.org/2000/svg" xmlns:xlink="http://www.w3.org/1999/xlink" x="0px" y="0px"
	 viewBox="0 0 979.47 685.09" enable-background="new 0 0 979.47 685.09" xml:space="preserve">
<g>
	<g>
		<defs>
			<path id="SVGID_1_" d="M268.77,12.67c-93.22,71.54-53.85,119.63-51.51,197.55s-4.64,216.07,24.61,246.51
				s149.64,68.88,188.47,82.41c68.78,23.98,177.95-7.48,196.68-28.56c18.73-21.07,49.17-274.19,21.07-353.12
				C604.18,34.13,322.62-28.66,268.77,12.67z"/>
		</defs>
		<clipPath id="SVGID_2_">
			<use xlink:href="#SVGID_1_"  overflow="visible"/>
		</clipPath>
		<path clip-path="url(#SVGID_2_)" fill="#162960" d="M268.77,12.67c-93.22,71.54-53.85,119.63-51.51,197.55
			s-4.64,216.07,24.61,246.51s149.64,68.88,188.47,82.41c68.78,23.98,177.95-7.48,196.68-28.56
			c18.73-21.07,49.17-274.19,21.07-353.12C604.18,34.13,322.62-28.66,268.77,12.67z"/>
		<path clip-path="url(#SVGID_2_)" fill="#284284" d="M257.65-60.3c3.01,3.95,6.05,7.83,9.13,11.67
			c54.38,67.81,117.31,119.19,117.31,197.31c0,82.54-1.76,172.1,31.61,216s273.95,144,310.83,133.46
			C763.4,487.6,975.89,120.58,912.67,57.36S257.65-60.3,257.65-60.3z"/>
	</g>
	<circle fill="#284284" cx="317.24" cy="127.46" r="22.09"/>
	<circle fill="#284284" cx="560.61" cy="470.92" r="22.09"/>
	<circle fill="#284284" cx="288.76" cy="398.68" r="28.49"/>
	<circle fill="#162960" cx="426.86" cy="72.83" r="28.49"/>
	<circle fill="#162960" cx="483.93" cy="348.53" r="20.14"/>
	<circle fill="#162960" cx="444.42" cy="210.68" r="13.91"/>
	<circle fill="#162960" cx="584.05" cy="214.03" r="24.46"/>
	<circle fill="#162960" cx="466.27" cy="115.22" r="13.91"/>
	<circle fill="#284284" cx="455.35" cy="470.92" r="10.92"/>
	<circle fill="#284284" cx="249.22" cy="112.36" r="11.05"/>
	<circle fill="#284284" cx="301.12" cy="185.73" r="11.05"/>
</g>
<g>
	<defs>
		<path id="SVGID_3_" d="M783.39,457.74c-61.83,51-31.61,168.67,0,203.79c31.61,35.12,181.86,27.48,193.25,0
			C1002.56,598.96,843.1,408.49,783.39,457.74z"/>
	</defs>
	<clipPath id="SVGID_4_">
		<use xlink:href="#SVGID_3_"  overflow="visible"/>
	</clipPath>
	<g clip-path="url(#SVGID_4_)">
		<path fill="#162960" d="M783.39,457.74c-61.83,51-31.61,168.67,0,203.79c31.61,35.12,181.86,27.48,193.25,0
			C1002.56,598.96,843.1,408.49,783.39,457.74z"/>
	</g>
	<path clip-path="url(#SVGID_4_)" fill="#284284" d="M880.81,398.68c0,0-96,333.74,48,363.01c144,29.27,208.39-174.44,135.8-245.85
		C992.03,444.42,880.81,398.68,880.81,398.68z"/>
</g>
<circle fill="#162960" cx="891.64" cy="597.49" r="17.85"/>
<circle fill="#162960" cx="909.34" cy="631.88" r="5.41"/>
<circle fill="#162960" cx="898.21" cy="539.41" r="8.35"/>
<circle fill="#284284" cx="781.8" cy="519.77" r="16.09"/>
<circle fill="#284284" cx="777.63" cy="554.25" r="4.18"/>
<circle fill="#284284" cx="815.83" cy="641.1" r="14.63"/>
<circle fill="#284284" cx="813.55" cy="517.28" r="5.41"/>
<g>
	<defs>
		<path id="SVGID_5_" d="M0.96,259.58c-8.75,42.75,44.29,82.26,69.7,86.33c25.4,4.07,86.44-50.56,81.86-66.09
			C142.11,244.44,9.41,218.29,0.96,259.58z"/>
	</defs>
	<clipPath id="SVGID_6_">
		<use xlink:href="#SVGID_5_"  overflow="visible"/>
	</clipPath>
	<g clip-path="url(#SVGID_6_)">
		<path fill="#162960" d="M0.96,259.58c-8.75,42.75,44.29,82.26,69.7,86.33c25.4,4.07,86.44-50.56,81.86-66.09
			C142.11,244.44,9.41,218.29,0.96,259.58z"/>
	</g>
	<path clip-path="url(#SVGID_6_)" fill="#284284" d="M22.03,201.24c0,0,73.48,174.21,144.49,137.36s28.62-145.17-26.55-150.6
		C84.79,182.58,22.03,201.24,22.03,201.24z"/>
</g>
<circle fill="#162960" cx="94.62" cy="281.76" r="9.72"/>
<circle fill="#162960" cx="113.88" cy="290.27" r="2.95"/>
<circle fill="#162960" cx="77.53" cy="254.9" r="4.55"/>
<circle fill="#284284" cx="21.51" cy="286.4" r="8.76"/>
<circle fill="#284284" cx="31.53" cy="302.43" r="2.27"/>
<circle fill="#284284" cx="77.42" cy="326.16" r="7.97"/>
<circle fill="#284284" cx="34.1" cy="274.48" r="2.95"/>
<g>
	<defs>
		<path id="SVGID_7_" d="M705.45,225.52c15.07,29.3,64.98,27.46,81.86,17.84c16.88-9.62,26.96-70.64,16.92-77.62
			C781.36,149.84,690.89,197.22,705.45,225.52z"/>
	</defs>
	<clipPath id="SVGID_8_">
		<use xlink:href="#SVGID_7_"  overflow="visible"/>
	</clipPath>
	<g clip-path="url(#SVGID_8_)">
		<path fill="#162960" d="M705.45,225.52c15.07,29.3,64.98,27.46,81.86,17.84c16.88-9.62,26.96-70.64,16.92-77.62
			C781.36,149.84,690.89,197.22,705.45,225.52z"/>
	</g>
	<path clip-path="url(#SVGID_8_)" fill="#284284" d="M690.25,181.22c0,0,125.65,67.78,150.02,12.5
		c24.36-55.28-51.83-98.98-86.87-76.07C718.36,140.55,690.25,181.22,690.25,181.22z"/>
</g>
<circle fill="#162960" cx="771.06" cy="194.27" r="7.34"/>
<circle fill="#162960" cx="786.43" cy="190.17" r="2.23"/>
<circle fill="#162960" cx="748.31" cy="186.55" r="3.43"/>
<circle fill="#284284" cx="730.23" cy="231.59" r="6.62"/>
<circle fill="#284284" cx="743.71" cy="236.28" r="1.72"/>
<circle fill="#284284" cx="781.94" cy="228.54" r="6.02"/>
<circle fill="#284284" cx="732.01" cy="218.62" r="2.23"/>
</svg>
