<?xml version="1.0" encoding="utf-8"?>
<!-- Generator: Adobe Illustrator 25.2.1, SVG Export Plug-In . SVG Version: 6.00 Build 0)  -->
<svg version="1.1" id="Layer_1" xmlns="http://www.w3.org/2000/svg" xmlns:xlink="http://www.w3.org/1999/xlink" x="0px" y="0px"
	 viewBox="0 0 904.45 717.41" enable-background="new 0 0 904.45 717.41" xml:space="preserve">
<g>
	<g>
		<defs>
			<path id="SVGID_1_" d="M693.31,459.42c45.15-108.49-12.95-130.55-53.82-196.94C598.61,196.1,535.8,72.86,495.27,61.06
				S331.21,75.94,290.81,83.56c-71.58,13.5-150.53,95.19-156.27,122.8S228.6,468.57,292.3,522.99
				C391.84,608.02,667.22,522.09,693.31,459.42z"/>
		</defs>
		<clipPath id="SVGID_2_">
			<use xlink:href="#SVGID_1_"  overflow="visible"/>
		</clipPath>
		<path clip-path="url(#SVGID_2_)" fill="#6C7896" d="M693.31,459.42c45.15-108.49-12.95-130.55-53.82-196.94
			C598.61,196.1,535.8,72.86,495.27,61.06S331.21,75.94,290.81,83.56c-71.58,13.5-150.53,95.19-156.27,122.8
			S228.6,468.57,292.3,522.99C391.84,608.02,667.22,522.09,693.31,459.42z"/>
		<path clip-path="url(#SVGID_2_)" fill="#AAC5F2" d="M739.32,517.13c-4.57-1.92-9.15-3.77-13.73-5.56
			C644.64,479.89,564.48,466.72,525.54,399c-41.14-71.55-84.27-150.07-135.08-171.49S81.19,239.24,54.47,266.76
			s-27.96,451.61,58.36,474.9S739.32,517.13,739.32,517.13z"/>
	</g>
	<circle fill="#AAC5F2" cx="594.06" cy="384.07" r="22.09"/>
	<circle fill="#AAC5F2" cx="211.88" cy="207.64" r="22.09"/>
	<circle fill="#AAC5F2" cx="483.56" cy="134.76" r="28.49"/>
	<circle fill="#6C7896" cx="526.27" cy="486.08" r="28.49"/>
	<circle fill="#6C7896" cx="339.36" cy="275.52" r="20.14"/>
	<circle fill="#6C7896" cx="442.33" cy="375.33" r="13.91"/>
	<circle fill="#6C7896" cx="319.61" cy="442.03" r="24.46"/>
	<circle fill="#6C7896" cx="470.97" cy="468.97" r="13.91"/>
	<circle fill="#AAC5F2" cx="303.13" cy="155.17" r="10.92"/>
	<circle fill="#AAC5F2" cx="660.55" cy="363.25" r="11.05"/>
	<circle fill="#AAC5F2" cx="578.99" cy="325.53" r="11.05"/>
</g>
<g>
	<defs>
		<path id="SVGID_3_" d="M708.37,8.04c-61.83,51-31.61,168.67,0,203.79s181.86,27.48,193.25,0
			C927.55,149.26,768.08-41.21,708.37,8.04z"/>
	</defs>
	<clipPath id="SVGID_4_">
		<use xlink:href="#SVGID_3_"  overflow="visible"/>
	</clipPath>
	<g clip-path="url(#SVGID_4_)">
		<path fill="#6C7896" d="M708.37,8.04c-61.83,51-31.61,168.67,0,203.79s181.86,27.48,193.25,0
			C927.55,149.26,768.08-41.21,708.37,8.04z"/>
	</g>
	<path clip-path="url(#SVGID_4_)" fill="#AAC5F2" d="M805.79-51.02c0,0-96,333.74,48,363.01c144,29.27,208.39-174.44,135.8-245.85
		S805.79-51.02,805.79-51.02z"/>
</g>
<circle fill="#6C7896" cx="816.62" cy="147.8" r="17.85"/>
<circle fill="#6C7896" cx="834.33" cy="182.19" r="5.41"/>
<circle fill="#6C7896" cx="823.19" cy="89.71" r="8.35"/>
<circle fill="#AAC5F2" cx="706.78" cy="70.08" r="16.09"/>
<circle fill="#AAC5F2" cx="740.81" cy="191.41" r="14.63"/>
<circle fill="#AAC5F2" cx="738.53" cy="67.58" r="5.41"/>
<g>
	<defs>
		<path id="SVGID_5_" d="M206.98,630.86c-8.75,42.75,44.29,82.26,69.7,86.33c25.4,4.07,86.44-50.56,81.86-66.09
			C348.13,615.73,215.43,589.58,206.98,630.86z"/>
	</defs>
	<clipPath id="SVGID_6_">
		<use xlink:href="#SVGID_5_"  overflow="visible"/>
	</clipPath>
	<g clip-path="url(#SVGID_6_)">
		<path fill="#6C7896" d="M206.98,630.86c-8.75,42.75,44.29,82.26,69.7,86.33c25.4,4.07,86.44-50.56,81.86-66.09
			C348.13,615.73,215.43,589.58,206.98,630.86z"/>
	</g>
	<path clip-path="url(#SVGID_6_)" fill="#AAC5F2" d="M228.05,572.53c0,0,73.48,174.21,144.49,137.36
		c71.01-36.85,28.62-145.17-26.55-150.6S228.05,572.53,228.05,572.53z"/>
</g>
<circle fill="#6C7896" cx="300.64" cy="653.05" r="9.72"/>
<circle fill="#6C7896" cx="319.9" cy="661.56" r="2.95"/>
<circle fill="#6C7896" cx="283.55" cy="626.19" r="4.55"/>
<circle fill="#AAC5F2" cx="227.53" cy="657.69" r="8.76"/>
<circle fill="#AAC5F2" cx="237.55" cy="673.72" r="2.27"/>
<ellipse fill="#AAC5F2" cx="284.92" cy="698.33" rx="6.49" ry="7.08"/>
<circle fill="#AAC5F2" cx="240.12" cy="645.77" r="2.95"/>
<g>
	<defs>
		<path id="SVGID_7_" d="M1.58,118.24c15.07,29.3,64.98,27.46,81.86,17.84c16.88-9.62,26.96-70.64,16.92-77.62
			C77.49,42.57-12.98,89.95,1.58,118.24z"/>
	</defs>
	<clipPath id="SVGID_8_">
		<use xlink:href="#SVGID_7_"  overflow="visible"/>
	</clipPath>
	<g clip-path="url(#SVGID_8_)">
		<path fill="#6C7896" d="M1.58,118.24c15.07,29.3,64.98,27.46,81.86,17.84c16.88-9.62,26.96-70.64,16.92-77.62
			C77.49,42.57-12.98,89.95,1.58,118.24z"/>
	</g>
	<path clip-path="url(#SVGID_8_)" fill="#AAC5F2" d="M-13.62,73.94c0,0,125.65,67.78,150.02,12.5S84.57-12.53,49.53,10.37
		S-13.62,73.94-13.62,73.94z"/>
</g>
<circle fill="#6C7896" cx="67.19" cy="87" r="7.34"/>
<circle fill="#6C7896" cx="82.55" cy="82.9" r="2.23"/>
<circle fill="#6C7896" cx="44.43" cy="79.27" r="3.43"/>
<circle fill="#AAC5F2" cx="26.35" cy="124.31" r="6.62"/>
<circle fill="#AAC5F2" cx="39.84" cy="129.01" r="1.72"/>
<circle fill="#AAC5F2" cx="78.07" cy="121.27" r="6.02"/>
</svg>
