<svg xmlns="http://www.w3.org/2000/svg" viewBox="0 0 240 240">
  <!-- PLACEHOLDER: La Ruleta del Infortunio — wheel of misfortune -->
  <g>
    <!-- pointer -->
    <path fill="#E58BA0" d="M120 8l-12 26h24z"/>
    <!-- wheel -->
    <circle fill="#284284" cx="120" cy="132" r="96"/>
    <g>
      <path fill="#FFE8A9" d="M120 132V44a88 88 0 0 1 62 26z"/>
      <path fill="#7E9AD6" d="M120 132l62-62a88 88 0 0 1 26 62z"/>
      <path fill="#E58BA0" d="M120 132h88a88 88 0 0 1-26 62z"/>
      <path fill="#FFF6DC" d="M120 132l62 62a88 88 0 0 1-62 26z"/>
      <path fill="#E6C85E" d="M120 132v88a88 88 0 0 1-62-26z"/>
      <path fill="#B95E77" d="M120 132l-62 62a88 88 0 0 1-26-62z"/>
      <path fill="#4E6AA8" d="M120 132H32a88 88 0 0 1 26-62z"/>
      <path fill="#162960" d="M120 132L58 70a88 88 0 0 1 62-26z"/>
    </g>
    <!-- hub -->
    <circle fill="#162960" cx="120" cy="132" r="26"/>
    <circle fill="#FFE8A9" cx="120" cy="132" r="14"/>
    <!-- skull mark on hub (misfortune!) -->
    <circle fill="#162960" cx="115" cy="129" r="3"/>
    <circle fill="#162960" cx="125" cy="129" r="3"/>
    <path fill="#162960" d="M115 138h10v4h-10z"/>
  </g>
</svg>
